<?xml version="1.0" standalone="no"?>
<!DOCTYPE svg PUBLIC "-//W3C//DTD SVG 20010904//EN"
 "http://www.w3.org/TR/2001/REC-SVG-20010904/DTD/svg10.dtd">
<svg version="1.0" xmlns="http://www.w3.org/2000/svg"
 width="300.000000pt" height="300.000000pt" viewBox="0 0 300.000000 300.000000"
 preserveAspectRatio="xMidYMid meet">
<metadata>
Created by potrace 1.10, written by Peter Selinger 2001-2011
</metadata>
<g transform="translate(0.000000,300.000000) scale(0.100000,-0.100000)"
fill="#000000" stroke="none">
<path d="M1356 1997 c-9 -15 -16 -74 -20 -191 -6 -166 -13 -196 -42 -196 -8 0
-25 -10 -39 -22 -21 -18 -25 -31 -25 -73 0 -61 -14 -77 -79 -93 -69 -17 -71
-14 -72 107 0 58 -2 122 -5 141 -6 48 -46 104 -88 124 -38 18 -41 23 -27 45
12 18 -11 66 -37 80 -19 10 -35 9 -64 -4 -10 -4 -24 -5 -32 -2 -19 7 -66 -40
-66 -65 0 -11 5 -29 11 -40 9 -17 8 -23 -5 -30 -39 -22 -46 -60 -46 -240 1
-127 4 -178 14 -190 7 -10 16 -15 19 -11 4 3 7 1 7 -6 0 -10 10 -11 38 -6 74
14 97 17 127 19 l30 1 2 -85 c2 -77 5 -87 28 -107 28 -25 45 -29 45 -12 0 5 4
8 8 5 5 -3 37 2 73 10 35 9 69 17 75 18 44 8 105 73 128 136 21 58 23 59 73
66 21 2 65 11 98 18 204 47 217 49 226 35 5 -8 9 -22 9 -31 0 -9 12 -26 27
-38 23 -18 37 -21 78 -16 27 3 71 12 97 20 45 13 48 13 80 -10 52 -39 101 -28
121 29 7 18 40 35 91 46 49 11 66 58 66 183 0 60 -5 119 -12 135 -17 39 -79
103 -100 103 -11 0 -23 11 -29 28 -14 36 -48 72 -70 72 -10 0 -30 -12 -45 -26
-20 -21 -25 -33 -20 -55 3 -16 2 -29 -2 -29 -4 0 -23 -13 -41 -28 -32 -26 -34
-32 -36 -101 -5 -118 -39 -126 -49 -11 -7 90 -5 85 -48 127 -37 36 -42 38
-106 38 -37 -1 -105 -9 -152 -19 -145 -31 -136 -30 -143 -4 -4 12 -7 47 -7 76
0 29 -4 61 -10 71 -15 30 -38 33 -54 8z m34 -117 c0 -60 4 -110 8 -110 5 0 80
16 168 36 138 31 164 34 197 24 60 -18 77 -55 77 -167 0 -52 4 -93 10 -93 5 0
32 5 60 11 l50 11 0 88 c0 62 4 93 14 102 7 8 50 20 94 27 77 13 83 12 115 -8
18 -11 39 -32 45 -46 17 -37 16 -269 -1 -283 -7 -6 -111 -32 -230 -57 -248
-53 -247 -54 -247 27 0 42 -3 49 -17 44 -10 -3 -115 -26 -233 -51 l-215 -47
-2 -39 c-3 -52 -27 -96 -65 -119 -26 -16 -187 -60 -219 -60 -5 0 -9 43 -9 95
0 92 1 95 23 95 39 1 228 47 240 59 8 8 11 38 9 81 l-2 69 55 11 55 11 0 200
c0 126 4 199 10 199 6 0 10 -43 10 -110z m703 22 c15 -16 15 -20 1 -40 -18
-26 -22 -26 -48 -7 -17 13 -18 18 -6 40 16 30 31 32 53 7z m-1173 -20 l22 -18
-20 -24 c-19 -24 -21 -24 -40 -7 -18 17 -20 17 -33 -4 -13 -18 -17 -19 -42 -8
-32 14 -32 17 -6 48 18 23 20 23 39 6 18 -16 19 -16 32 4 16 26 20 26 48 3z
m70 -131 c44 -32 50 -57 50 -203 0 -76 -1 -138 -3 -138 -2 0 -65 -13 -140 -30
-76 -16 -139 -30 -140 -30 -1 0 0 89 3 197 l5 198 70 17 c78 19 118 16 155
-11z m1110 -371 c0 -8 -8 -11 -62 -26 -12 -4 -18 0 -18 10 0 9 14 19 33 24 33
9 47 7 47 -8z"/>
<path d="M1605 1671 c-156 -35 -211 -50 -213 -62 -2 -13 31 -8 190 28 106 23
201 43 211 43 16 0 35 26 26 34 -2 2 -98 -18 -214 -43z"/>
<path d="M2086 1646 c-55 -12 -101 -27 -104 -34 -5 -16 7 -15 131 10 68 15
107 27 107 35 0 16 -13 15 -134 -11z"/>
<path d="M893 1591 c-75 -16 -113 -29 -113 -38 0 -7 3 -13 8 -13 20 1 224 49
229 54 21 20 -26 19 -124 -3z"/>
</g>
</svg>
